HIERARCHY
ROOT Hips
{
	OFFSET -3.958830 18.904000 13.208200
	CHANNELS 6 Xposition Yposition Zposition Zrotation Yrotation Xrotation 
	JOINT LHipJoint
	{
		OFFSET 0.000000 0.000000 0.000000
		CHANNELS 3 Zrotation Yrotation Xrotation
		JOINT LeftUpLeg
		{
			OFFSET 1.800000 -1.400000 0.085000
			CHANNELS 3 Zrotation Yrotation Xrotation
			JOINT LeftLeg
			{
				OFFSET 2.215000 -6.000000 0.000000
				CHANNELS 3 Zrotation Yrotation Xrotation
				JOINT LeftFoot
				{
					OFFSET 2.500000 -6.900000 0.000000
					CHANNELS 3 Zrotation Yrotation Xrotation
					JOINT LeftToeBase
					{
						OFFSET 0.200000 -0.500000 1.950000
						CHANNELS 3 Zrotation Yrotation Xrotation
						End Site
						{
							OFFSET 0.000000 0.000000 0.000000
						}
					}
				}
			}
		}
	}
	JOINT RHipJoint
	{
		OFFSET 0.000000 0.000000 0.000000
		CHANNELS 3 Zrotation Yrotation Xrotation
		JOINT RightUpLeg
		{
			OFFSET -1.800000 -1.400000 0.085000
			CHANNELS 3 Zrotation Yrotation Xrotation
			JOINT RightLeg
			{
				OFFSET -2.215000 -6.000000 0.000000
				CHANNELS 3 Zrotation Yrotation Xrotation
				JOINT RightFoot
				{
					OFFSET -2.500000 -6.900000 0.000000
					CHANNELS 3 Zrotation Yrotation Xrotation
					JOINT RightToeBase
					{
						OFFSET -0.200000 -0.500000 1.950000
						CHANNELS 3 Zrotation Yrotation Xrotation
						End Site
						{
							OFFSET 0.000000 0.000000 0.000000
						}
					}
				}
			}
		}
	}
	JOINT LowerBack
	{
		OFFSET 0.000000 0.000000 0.000000
		CHANNELS 3 Zrotation Yrotation Xrotation
		JOINT Spine
		{
			OFFSET -0.087000 1.940000 -0.288900
			CHANNELS 3 Zrotation Yrotation Xrotation
			JOINT Spine1
			{
				OFFSET 0.000000 1.950000 0.060000
				CHANNELS 3 Zrotation Yrotation Xrotation
				JOINT Neck
				{
					OFFSET 0.000000 0.000000 0.000000
					CHANNELS 3 Zrotation Yrotation Xrotation
					JOINT Neck1
					{
						OFFSET 0.000000 1.600000 0.340000
						CHANNELS 3 Zrotation Yrotation Xrotation
						JOINT Head
						{
							OFFSET 0.000000 1.667000 -0.240000
							CHANNELS 3 Zrotation Yrotation Xrotation
							End Site
							{
								OFFSET 0.000000 0.000000 0.000000
							}
						}
					}
				}
				JOINT LeftShoulder
				{
					OFFSET 0.000000 0.000000 0.000000
					CHANNELS 3 Zrotation Yrotation Xrotation
					JOINT LeftArm
					{
						OFFSET 2.700000 1.550000 -0.730000
						CHANNELS 3 Zrotation Yrotation Xrotation
						JOINT LeftForeArm
						{
							OFFSET 5.450000 0.000000 0.000000
							CHANNELS 3 Zrotation Yrotation Xrotation
							JOINT LeftHand
							{
								OFFSET 3.450000 0.000000 0.000000
								CHANNELS 3 Zrotation Yrotation Xrotation
								JOINT LeftHandIndex1
								{
									OFFSET 0.750000 0.000000 0.000000
									CHANNELS 3 Zrotation Yrotation Xrotation
									End Site
									{
										OFFSET 0.000000 0.000000 0.000000
									}
								}
							}
						}
					}
				}
				JOINT RightShoulder
				{
					OFFSET 0.000000 0.000000 0.000000
					CHANNELS 3 Zrotation Yrotation Xrotation
					JOINT RightArm
					{
						OFFSET -2.700000 1.550000 -0.730000
						CHANNELS 3 Zrotation Yrotation Xrotation
						JOINT RightForeArm
						{
							OFFSET -5.450000 0.000000 0.000000
							CHANNELS 3 Zrotation Yrotation Xrotation
							JOINT RightHand
							{
								OFFSET -3.450000 0.000000 0.000000
								CHANNELS 3 Zrotation Yrotation Xrotation
								JOINT RightHandIndex1
								{
									OFFSET -0.750000 0.000000 0.000000
									CHANNELS 3 Zrotation Yrotation Xrotation
									End Site
									{
										OFFSET 0.000000 0.000000 0.000000
									}
								}
							}
						}
					}
				}
			}
		}
	}
}
MOTION
Frames: 8
Frame Time: 0.016667
10.820770 17.012750 -0.302080 -3.671139 10.425659 -5.885288 -15.270712 14.438155 2.685934 6.020918 -1.972384 -9.102183 -3.423902 6.715263 23.581633 -0.504876 5.365698 2.808311 -0.007990 -0.372820 -0.147550 18.072485 -9.811586 3.479660 -7.905807 2.061258 -37.469614 4.698922 -4.010183 13.112079 0.194348 -1.761459 3.888100 -0.151440 0.477130 0.033620 -3.347400 -4.685841 -7.869106 7.226983 -8.939081 17.469253 -3.196285 -7.461972 2.046896 0.709266 -6.611393 -11.904442 -21.602695 9.121078 45.372556 4.865670 -2.227960 -3.626670 -10.243442 -6.333353 2.841499 -56.801612 -11.555588 -1.813383 -41.936235 -26.835356 6.243612 -3.776682 2.917647 0.693270 0.117840 -0.216170 0.076100 9.625554 8.208801 7.916145 62.672282 -7.227959 -17.875928 37.512248 36.271400 6.199943 1.921680 -1.196156 -0.417730 0.447580 0.378570 -0.211770 
10.758930 17.026970 -0.260880 -4.156381 10.522928 -5.233939 -15.284467 14.434639 2.665009 6.188566 -2.039599 -9.879421 -3.033674 6.592040 23.609562 -0.495429 5.306165 2.841430 -0.064330 -0.435400 -0.197240 18.057223 -9.842270 3.456536 -9.723449 1.718871 -37.518809 5.196409 -4.423626 14.249581 0.205957 -1.996789 3.813936 -0.188820 0.522040 0.031910 -3.309735 -4.644753 -7.835036 6.998113 -8.688323 15.956741 -3.053136 -7.351924 1.971522 0.911160 -6.331229 -11.655538 -20.427989 8.893853 45.122059 4.819800 -2.288060 -1.598120 -10.163300 -5.141411 2.774886 -59.846257 -10.317846 -2.374325 -36.252247 -24.843888 4.370490 -3.820355 2.874330 0.655950 0.153260 -0.256850 0.076480 9.120992 7.057253 7.649065 63.682628 -7.344570 -17.913949 37.851006 36.211559 6.336966 1.930559 -1.206502 -0.426160 0.437950 0.400570 -0.197210 
10.694420 17.038400 -0.224590 -4.608986 10.587748 -4.586926 -15.300907 14.407119 2.659670 6.468417 -2.169687 -10.739532 -3.015072 6.607255 23.780876 -0.501806 5.313122 2.845711 -0.108350 -0.498000 -0.232400 18.041407 -9.878530 3.422258 -11.537992 1.373371 -37.372675 5.757445 -4.941279 15.650625 0.203216 -2.280320 3.713347 -0.218640 0.558150 0.037670 -3.264393 -4.573917 -7.802446 6.661049 -8.399970 14.653110 -2.828202 -7.199849 1.834846 1.097149 -6.075481 -11.263711 -19.219384 8.500716 44.669425 4.691480 -2.412650 -0.313040 -9.836053 -3.525454 2.553422 -63.012754 -9.135449 -2.957710 -30.680437 -23.190449 2.839078 -3.862250 2.822575 0.642300 0.180970 -0.289280 0.076400 8.403312 5.537546 7.257599 64.656071 -7.319217 -17.784360 38.020224 35.934803 6.450937 1.928278 -1.210938 -0.443010 0.430870 0.423930 -0.195380 
10.624710 17.046350 -0.186880 -4.991007 10.685369 -3.888238 -15.325595 14.359195 2.671398 6.867800 -2.312255 -11.649288 -3.398616 6.768348 23.919835 -0.488103 5.353393 2.838055 -0.154070 -0.556400 -0.271680 18.019539 -9.935109 3.358401 -13.186255 1.037406 -36.996587 6.028415 -5.495142 17.407816 0.200190 -2.603576 3.598884 -0.249370 0.597010 0.047410 -3.196057 -4.465003 -7.758933 6.040503 -7.963842 13.286593 -2.304186 -6.936043 1.800924 1.174479 -5.748910 -10.798571 -17.774489 7.842276 43.948041 4.457650 -2.605730 1.075700 -9.447842 -1.848352 2.297263 -65.785300 -8.024063 -3.561434 -25.687340 -21.902979 1.682110 -3.910961 2.779416 0.613160 0.214550 -0.324370 0.077090 7.860398 3.947733 6.849824 65.176094 -7.365284 -17.533205 38.047910 35.716320 6.567089 1.929275 -1.222998 -0.450790 0.416780 0.444780 -0.186120 
10.554070 17.048430 -0.150980 -5.351986 10.682774 -3.146572 -15.348280 14.296013 2.680190 7.255771 -2.399462 -12.488217 -3.810808 6.920807 23.844508 -0.474683 5.376292 2.838956 -0.208580 -0.622970 -0.318530 18.002176 -10.013585 3.281279 -14.641095 0.750668 -36.512380 6.058639 -6.068662 19.411636 0.200998 -2.957418 3.478230 -0.284380 0.642490 0.057140 -3.133398 -4.302203 -7.699002 5.391835 -7.399439 11.900267 -1.640083 -6.542633 1.852111 1.189101 -5.314985 -10.363026 -16.103193 7.025449 43.060418 4.177540 -2.827180 2.617590 -8.856945 -0.299031 2.098950 -68.348174 -6.991869 -4.223313 -21.285695 -20.943099 0.777177 -3.967855 2.738354 0.577000 0.255280 -0.366550 0.075360 7.243745 2.420039 6.495943 65.707674 -7.434001 -17.358523 37.587618 35.693625 6.607465 1.925810 -1.233874 -0.459470 0.401530 0.470780 -0.175220 
10.480650 17.044580 -0.118360 -5.655534 10.604541 -2.517170 -15.372022 14.239853 2.689497 7.706407 -2.452915 -13.239770 -4.202293 7.062182 23.686756 -0.464752 5.390881 2.842427 -0.249590 -0.673580 -0.355610 17.981931 -10.106983 3.185319 -15.964846 0.493507 -35.731739 6.062568 -6.679079 21.568325 0.190201 -3.339396 3.345965 -0.309610 0.679790 0.063050 -3.062831 -4.140157 -7.629214 4.618681 -6.769100 10.745690 -0.794491 -6.073306 1.886390 1.102269 -4.951663 -9.952694 -14.742177 6.302469 42.160580 4.027970 -3.104880 3.745860 -8.351325 1.130932 1.893642 -70.363929 -6.104716 -4.820808 -17.618614 -20.202951 0.089186 -4.014745 2.700370 0.546700 0.287000 -0.401790 0.076470 6.946708 1.049160 6.182674 65.787713 -7.602657 -17.178831 37.153776 35.985409 6.735140 1.920791 -1.245247 -0.467140 0.391540 0.489320 -0.165710 
10.405150 17.036880 -0.087970 -5.970578 10.445875 -2.005330 -15.391416 14.194007 2.684496 8.158760 -2.419143 -13.701199 -4.381166 7.114691 23.373348 -0.462300 5.368376 2.853055 -0.273670 -0.706680 -0.373970 17.960235 -10.219963 3.094992 -17.081964 0.321398 -34.683058 6.220380 -7.271412 23.447655 0.166182 -3.701054 3.214428 -0.328170 0.695460 0.074230 -2.996573 -3.944536 -7.562957 3.823701 -6.001887 9.838673 0.113952 -5.453450 1.904237 1.038805 -4.481206 -9.587373 -13.301725 5.419211 41.509521 3.777930 -3.386440 4.338920 -8.067246 2.405543 1.704334 -71.687911 -5.161016 -5.551134 -14.951528 -20.058383 -0.368208 -4.045579 2.673799 0.528980 0.305590 -0.419040 0.075580 6.840127 -0.222537 5.934912 65.717435 -7.966261 -17.132039 36.835807 36.539891 6.937505 1.914696 -1.257789 -0.466900 0.375280 0.498970 -0.161990 
10.324260 17.024700 -0.063900 -6.288081 10.206108 -1.521726 -15.407634 14.154458 2.666208 8.692633 -2.336020 -14.054125 -4.354032 7.086279 22.924454 -0.464483 5.305292 2.876375 -0.285200 -0.725840 -0.375080 17.938027 -10.344311 3.011473 -17.931810 0.259828 -33.514603 6.403353 -7.800296 25.112972 0.138323 -4.028137 3.096467 -0.341530 0.696950 0.082030 -2.932748 -3.722676 -7.494376 2.929781 -5.191178 9.101103 1.082920 -4.793881 1.955916 0.966135 -3.896461 -9.283878 -11.675056 4.489142 40.893164 3.464130 -3.524870 4.699630 -8.001283 3.448455 1.648071 -72.212987 -3.921456 -6.619431 -13.482075 -20.944177 -0.580801 -4.058402 2.662218 0.513920 0.317020 -0.429540 0.072070 6.986959 -1.339788 5.683947 65.359990 -8.327001 -17.065184 36.679419 37.215988 7.193078 1.911843 -1.274730 -0.462160 0.356050 0.498430 -0.163590 
